<svg viewBox="0 0 248 271" xmlns="http://www.w3.org/2000/svg">
  <rect width="248" height="271" rx="44" fill="#FAF8F5"/>
  <g fill="#A8834B" fill-rule="evenodd" stroke="none" transform="translate(19.84,21.68) scale(0.84)">
    <path d="M 232,143 L 230,146 L 231,147 L 231,148 L 232,149 L 236,149 L 238,147 L 238,145 L 236,143 Z"/>
    <path d="M 163,119 L 162,119 L 162,125 L 161,126 L 161,129 L 160,130 L 160,131 L 156,135 L 154,135 L 153,136 L 146,136 L 145,137 L 151,137 L 152,138 L 155,138 L 156,139 L 157,139 L 160,142 L 160,144 L 161,145 L 161,148 L 162,149 L 162,156 L 163,155 L 163,148 L 164,147 L 164,144 L 165,143 L 165,142 L 168,139 L 169,139 L 170,138 L 173,138 L 174,137 L 180,137 L 179,136 L 172,136 L 171,135 L 169,135 L 168,134 L 167,134 L 165,132 L 165,131 L 164,130 L 164,128 L 163,127 Z"/>
    <path d="M 95,18 L 97,18 L 98,17 L 100,17 L 101,16 L 103,16 L 104,15 L 106,15 L 107,16 L 106,17 L 103,18 L 101,20 L 98,21 L 92,26 L 91,26 L 86,31 L 85,31 L 77,39 L 77,40 L 72,45 L 72,46 L 70,48 L 70,49 L 67,52 L 67,53 L 63,58 L 63,59 L 62,60 L 62,61 L 56,72 L 56,74 L 54,77 L 54,79 L 53,80 L 53,83 L 52,84 L 52,86 L 51,87 L 51,90 L 50,91 L 50,94 L 49,95 L 49,99 L 48,100 L 48,109 L 47,110 L 47,127 L 48,128 L 48,135 L 49,136 L 49,141 L 50,142 L 50,145 L 51,146 L 51,149 L 52,150 L 52,152 L 53,153 L 53,155 L 54,156 L 55,161 L 56,162 L 56,163 L 57,164 L 57,166 L 58,167 L 60,172 L 62,174 L 65,181 L 67,183 L 67,184 L 69,186 L 69,187 L 72,190 L 72,191 L 76,195 L 76,196 L 91,211 L 92,211 L 99,217 L 100,217 L 102,219 L 105,220 L 107,222 L 108,222 L 109,223 L 110,223 L 121,229 L 123,229 L 124,230 L 126,230 L 127,231 L 129,231 L 130,232 L 132,232 L 133,233 L 136,233 L 137,234 L 140,234 L 141,235 L 145,235 L 146,236 L 154,236 L 155,237 L 170,237 L 171,236 L 180,236 L 181,235 L 185,235 L 186,234 L 189,234 L 190,233 L 193,233 L 194,232 L 199,231 L 202,229 L 207,228 L 208,227 L 215,224 L 217,222 L 218,222 L 221,220 L 222,220 L 223,221 L 217,227 L 216,227 L 213,230 L 212,230 L 209,233 L 208,233 L 202,238 L 201,238 L 200,239 L 199,239 L 198,240 L 197,240 L 186,246 L 184,246 L 181,248 L 179,248 L 178,249 L 175,249 L 174,250 L 172,250 L 171,251 L 168,251 L 167,252 L 164,252 L 163,253 L 157,253 L 156,254 L 129,254 L 128,253 L 121,253 L 120,252 L 116,252 L 115,251 L 112,251 L 111,250 L 109,250 L 108,249 L 106,249 L 105,248 L 102,248 L 101,247 L 99,247 L 96,245 L 94,245 L 93,244 L 86,241 L 84,239 L 79,237 L 77,235 L 76,235 L 74,233 L 73,233 L 71,231 L 70,231 L 67,228 L 66,228 L 58,220 L 59,219 L 57,217 L 56,218 L 48,210 L 48,209 L 44,205 L 44,204 L 38,196 L 37,193 L 35,191 L 35,190 L 30,181 L 30,179 L 27,174 L 27,172 L 26,171 L 26,169 L 25,168 L 25,166 L 24,165 L 24,163 L 23,162 L 23,159 L 22,158 L 22,154 L 21,153 L 21,147 L 20,146 L 20,138 L 19,137 L 19,123 L 20,122 L 20,114 L 21,113 L 21,108 L 22,107 L 22,103 L 23,102 L 23,99 L 24,98 L 24,96 L 25,95 L 25,92 L 26,91 L 27,86 L 30,81 L 30,79 L 31,78 L 31,77 L 32,76 L 35,69 L 37,67 L 37,66 L 39,64 L 39,63 L 41,61 L 41,60 L 43,58 L 43,57 L 50,49 L 51,50 L 50,49 L 52,47 L 52,46 L 56,42 L 57,42 L 63,36 L 64,36 L 71,30 L 72,30 L 73,29 L 76,28 L 78,26 L 79,26 L 90,20 L 92,20 Z"/>
    <path d="M 103,13 L 102,14 L 99,14 L 98,15 L 95,15 L 94,16 L 92,16 L 91,17 L 86,18 L 77,23 L 75,23 L 73,25 L 68,27 L 66,29 L 65,29 L 63,31 L 62,31 L 59,34 L 58,34 L 53,39 L 52,39 L 43,48 L 43,49 L 39,53 L 39,54 L 33,61 L 33,62 L 31,64 L 29,69 L 27,71 L 27,72 L 25,75 L 25,77 L 21,84 L 21,86 L 20,87 L 20,89 L 19,90 L 19,92 L 18,93 L 18,95 L 17,96 L 17,98 L 16,99 L 16,102 L 15,103 L 15,107 L 14,108 L 14,113 L 13,114 L 13,124 L 12,125 L 12,136 L 13,137 L 13,148 L 14,149 L 14,154 L 15,155 L 15,158 L 16,159 L 16,162 L 17,163 L 17,166 L 18,167 L 18,169 L 19,170 L 20,175 L 22,178 L 22,180 L 23,181 L 23,182 L 24,183 L 24,184 L 25,185 L 25,186 L 26,187 L 26,188 L 27,189 L 30,196 L 32,198 L 32,199 L 35,203 L 35,204 L 41,211 L 41,212 L 49,220 L 49,221 L 51,223 L 52,223 L 60,231 L 61,231 L 68,237 L 69,237 L 71,239 L 74,240 L 76,242 L 77,242 L 78,243 L 79,243 L 80,244 L 81,244 L 92,250 L 94,250 L 97,252 L 99,252 L 100,253 L 102,253 L 103,254 L 106,254 L 107,255 L 109,255 L 110,256 L 113,256 L 114,257 L 119,257 L 120,258 L 127,258 L 128,259 L 151,259 L 152,258 L 159,258 L 160,257 L 164,257 L 165,256 L 168,256 L 169,255 L 172,255 L 173,254 L 178,253 L 181,251 L 183,251 L 186,249 L 188,249 L 189,248 L 190,248 L 191,247 L 198,244 L 200,242 L 203,241 L 209,236 L 210,236 L 212,234 L 213,234 L 232,215 L 232,214 L 234,212 L 234,211 L 236,209 L 236,208 L 235,208 L 232,211 L 231,211 L 228,214 L 227,214 L 222,218 L 221,218 L 220,219 L 219,219 L 218,220 L 217,220 L 206,226 L 204,226 L 203,227 L 201,227 L 200,228 L 198,228 L 197,229 L 195,229 L 194,230 L 192,230 L 191,231 L 187,231 L 186,232 L 181,232 L 180,233 L 173,233 L 172,234 L 158,234 L 157,233 L 150,233 L 149,232 L 143,232 L 142,231 L 139,231 L 138,230 L 135,230 L 134,229 L 129,228 L 126,226 L 124,226 L 123,225 L 122,225 L 121,224 L 120,224 L 119,223 L 118,223 L 117,222 L 116,222 L 115,221 L 108,218 L 106,216 L 103,215 L 100,212 L 99,212 L 97,210 L 96,210 L 78,192 L 78,191 L 75,188 L 75,187 L 69,179 L 67,174 L 65,172 L 65,171 L 63,168 L 63,166 L 60,161 L 60,159 L 59,158 L 59,156 L 58,155 L 58,153 L 57,152 L 57,150 L 56,149 L 56,146 L 55,145 L 55,142 L 54,141 L 54,137 L 53,136 L 53,128 L 52,127 L 52,106 L 53,105 L 53,98 L 54,97 L 54,92 L 55,91 L 55,88 L 56,87 L 56,84 L 57,83 L 57,81 L 58,80 L 59,75 L 61,72 L 61,70 L 62,69 L 62,68 L 63,67 L 63,66 L 64,65 L 64,64 L 65,63 L 68,56 L 70,54 L 70,53 L 72,51 L 72,50 L 74,48 L 74,47 L 77,44 L 77,43 L 93,27 L 94,27 L 101,21 L 102,21 L 106,18 L 107,18 L 108,17 L 109,17 L 110,16 L 111,16 L 112,15 L 119,12 L 119,11 L 117,11 L 116,12 L 115,12 L 114,11 L 113,12 L 108,12 L 107,13 Z"/>
  </g>
</svg>