<svg viewBox="0 0 341 315" xmlns="http://www.w3.org/2000/svg" role="img" aria-label="NALUNA">
  <g fill="#A8834B" fill-rule="evenodd" stroke="none">
    <path d="M 147,18 L 149,18 L 150,17 L 152,17 L 153,16 L 155,16 L 156,15 L 158,15 L 159,16 L 158,17 L 155,18 L 153,20 L 150,21 L 144,26 L 143,26 L 138,31 L 137,31 L 129,39 L 129,40 L 124,45 L 124,46 L 122,48 L 122,49 L 119,52 L 119,53 L 115,58 L 115,59 L 114,60 L 114,61 L 108,72 L 108,74 L 106,77 L 106,79 L 105,80 L 105,83 L 104,84 L 104,86 L 103,87 L 103,90 L 102,91 L 102,94 L 101,95 L 101,99 L 100,100 L 100,109 L 99,110 L 99,127 L 100,128 L 100,135 L 101,136 L 101,141 L 102,142 L 102,145 L 103,146 L 103,149 L 104,150 L 104,152 L 105,153 L 105,155 L 106,156 L 107,161 L 108,162 L 108,163 L 109,164 L 109,166 L 110,167 L 112,172 L 114,174 L 117,181 L 119,183 L 119,184 L 121,186 L 121,187 L 124,190 L 124,191 L 128,195 L 128,196 L 143,211 L 144,211 L 151,217 L 152,217 L 154,219 L 157,220 L 159,222 L 160,222 L 161,223 L 162,223 L 173,229 L 175,229 L 176,230 L 178,230 L 179,231 L 181,231 L 182,232 L 184,232 L 185,233 L 188,233 L 189,234 L 192,234 L 193,235 L 197,235 L 198,236 L 206,236 L 207,237 L 222,237 L 223,236 L 232,236 L 233,235 L 237,235 L 238,234 L 241,234 L 242,233 L 245,233 L 246,232 L 251,231 L 254,229 L 259,228 L 260,227 L 267,224 L 269,222 L 270,222 L 273,220 L 274,220 L 275,221 L 269,227 L 268,227 L 265,230 L 264,230 L 261,233 L 260,233 L 254,238 L 253,238 L 252,239 L 251,239 L 250,240 L 249,240 L 238,246 L 236,246 L 233,248 L 231,248 L 230,249 L 227,249 L 226,250 L 224,250 L 223,251 L 220,251 L 219,252 L 216,252 L 215,253 L 209,253 L 208,254 L 181,254 L 180,253 L 173,253 L 172,252 L 168,252 L 167,251 L 164,251 L 163,250 L 161,250 L 160,249 L 158,249 L 157,248 L 154,248 L 153,247 L 151,247 L 148,245 L 146,245 L 145,244 L 138,241 L 136,239 L 131,237 L 129,235 L 128,235 L 126,233 L 125,233 L 123,231 L 122,231 L 119,228 L 118,228 L 110,220 L 111,219 L 109,217 L 108,218 L 100,210 L 100,209 L 96,205 L 96,204 L 90,196 L 89,193 L 87,191 L 87,190 L 82,181 L 82,179 L 79,174 L 79,172 L 78,171 L 78,169 L 77,168 L 77,166 L 76,165 L 76,163 L 75,162 L 75,159 L 74,158 L 74,154 L 73,153 L 73,147 L 72,146 L 72,138 L 71,137 L 71,123 L 72,122 L 72,114 L 73,113 L 73,108 L 74,107 L 74,103 L 75,102 L 75,99 L 76,98 L 76,96 L 77,95 L 77,92 L 78,91 L 79,86 L 82,81 L 82,79 L 83,78 L 83,77 L 84,76 L 87,69 L 89,67 L 89,66 L 91,64 L 91,63 L 93,61 L 93,60 L 95,58 L 95,57 L 102,49 L 103,50 L 102,49 L 104,47 L 104,46 L 108,42 L 109,42 L 115,36 L 116,36 L 123,30 L 124,30 L 125,29 L 128,28 L 130,26 L 131,26 L 142,20 L 144,20 Z"/>
    <path d="M 155,13 L 154,14 L 151,14 L 150,15 L 147,15 L 146,16 L 144,16 L 143,17 L 138,18 L 129,23 L 127,23 L 125,25 L 120,27 L 118,29 L 117,29 L 115,31 L 114,31 L 111,34 L 110,34 L 105,39 L 104,39 L 95,48 L 95,49 L 91,53 L 91,54 L 85,61 L 85,62 L 83,64 L 81,69 L 79,71 L 79,72 L 77,75 L 77,77 L 73,84 L 73,86 L 72,87 L 72,89 L 71,90 L 71,92 L 70,93 L 70,95 L 69,96 L 69,98 L 68,99 L 68,102 L 67,103 L 67,107 L 66,108 L 66,113 L 65,114 L 65,124 L 64,125 L 64,136 L 65,137 L 65,148 L 66,149 L 66,154 L 67,155 L 67,158 L 68,159 L 68,162 L 69,163 L 69,166 L 70,167 L 70,169 L 71,170 L 72,175 L 74,178 L 74,180 L 75,181 L 75,182 L 76,183 L 76,184 L 77,185 L 77,186 L 78,187 L 78,188 L 79,189 L 82,196 L 84,198 L 84,199 L 87,203 L 87,204 L 93,211 L 93,212 L 101,220 L 101,221 L 103,223 L 104,223 L 112,231 L 113,231 L 120,237 L 121,237 L 123,239 L 126,240 L 128,242 L 129,242 L 130,243 L 131,243 L 132,244 L 133,244 L 144,250 L 146,250 L 149,252 L 151,252 L 152,253 L 154,253 L 155,254 L 158,254 L 159,255 L 161,255 L 162,256 L 165,256 L 166,257 L 171,257 L 172,258 L 179,258 L 180,259 L 203,259 L 204,258 L 211,258 L 212,257 L 216,257 L 217,256 L 220,256 L 221,255 L 224,255 L 225,254 L 230,253 L 233,251 L 235,251 L 238,249 L 240,249 L 241,248 L 242,248 L 243,247 L 250,244 L 252,242 L 255,241 L 261,236 L 262,236 L 264,234 L 265,234 L 284,215 L 284,214 L 286,212 L 286,211 L 288,209 L 288,208 L 287,208 L 284,211 L 283,211 L 280,214 L 279,214 L 274,218 L 273,218 L 272,219 L 271,219 L 270,220 L 269,220 L 258,226 L 256,226 L 255,227 L 253,227 L 252,228 L 250,228 L 249,229 L 247,229 L 246,230 L 244,230 L 243,231 L 239,231 L 238,232 L 233,232 L 232,233 L 225,233 L 224,234 L 210,234 L 209,233 L 202,233 L 201,232 L 195,232 L 194,231 L 191,231 L 190,230 L 187,230 L 186,229 L 181,228 L 178,226 L 176,226 L 175,225 L 174,225 L 173,224 L 172,224 L 171,223 L 170,223 L 169,222 L 168,222 L 167,221 L 160,218 L 158,216 L 155,215 L 152,212 L 151,212 L 149,210 L 148,210 L 130,192 L 130,191 L 127,188 L 127,187 L 121,179 L 119,174 L 117,172 L 117,171 L 115,168 L 115,166 L 112,161 L 112,159 L 111,158 L 111,156 L 110,155 L 110,153 L 109,152 L 109,150 L 108,149 L 108,146 L 107,145 L 107,142 L 106,141 L 106,137 L 105,136 L 105,128 L 104,127 L 104,106 L 105,105 L 105,98 L 106,97 L 106,92 L 107,91 L 107,88 L 108,87 L 108,84 L 109,83 L 109,81 L 110,80 L 111,75 L 113,72 L 113,70 L 114,69 L 114,68 L 115,67 L 115,66 L 116,65 L 116,64 L 117,63 L 120,56 L 122,54 L 122,53 L 124,51 L 124,50 L 126,48 L 126,47 L 129,44 L 129,43 L 145,27 L 146,27 L 153,21 L 154,21 L 158,18 L 159,18 L 160,17 L 161,17 L 162,16 L 163,16 L 164,15 L 171,12 L 171,11 L 169,11 L 168,12 L 167,12 L 166,11 L 165,12 L 160,12 L 159,13 Z"/>
  </g>
  <g class="moon-sparkle" fill="#A8834B" fill-rule="evenodd" stroke="none">
    <path d="M 215,119 L 214,119 L 214,125 L 213,126 L 213,129 L 212,130 L 212,131 L 208,135 L 206,135 L 205,136 L 198,136 L 197,137 L 203,137 L 204,138 L 207,138 L 208,139 L 209,139 L 212,142 L 212,144 L 213,145 L 213,148 L 214,149 L 214,156 L 215,155 L 215,148 L 216,147 L 216,144 L 217,143 L 217,142 L 220,139 L 221,139 L 222,138 L 225,138 L 226,137 L 232,137 L 231,136 L 224,136 L 223,135 L 221,135 L 220,134 L 219,134 L 217,132 L 217,131 L 216,130 L 216,128 L 215,127 Z"/>
    <path d="M 284,143 L 282,146 L 283,147 L 283,148 L 284,149 L 288,149 L 290,147 L 290,145 L 288,143 Z"/>
  </g>
  <path class="moon-wave" d="M 10,294 L 12,294 L 17,291 L 19,291 L 22,289 L 24,289 L 25,288 L 27,288 L 28,287 L 30,287 L 31,286 L 33,286 L 34,285 L 36,285 L 37,284 L 40,284 L 41,283 L 43,283 L 44,282 L 47,282 L 48,281 L 52,281 L 53,280 L 57,280 L 58,279 L 63,279 L 64,278 L 72,278 L 73,277 L 108,277 L 109,278 L 119,278 L 120,279 L 125,279 L 126,280 L 131,280 L 132,281 L 136,281 L 137,282 L 140,282 L 141,283 L 144,283 L 145,284 L 149,284 L 150,285 L 153,285 L 154,286 L 156,286 L 157,287 L 160,287 L 161,288 L 164,288 L 165,289 L 167,289 L 168,290 L 171,290 L 172,291 L 175,291 L 176,292 L 178,292 L 179,293 L 182,293 L 183,294 L 185,294 L 186,295 L 189,295 L 190,296 L 193,296 L 194,297 L 197,297 L 198,298 L 201,298 L 202,299 L 205,299 L 206,300 L 209,300 L 210,301 L 214,301 L 215,302 L 220,302 L 221,303 L 226,303 L 227,304 L 234,304 L 235,305 L 249,305 L 250,306 L 254,306 L 255,305 L 269,305 L 270,304 L 277,304 L 278,303 L 282,303 L 283,302 L 286,302 L 287,301 L 290,301 L 291,300 L 293,300 L 294,299 L 297,299 L 298,298 L 300,298 L 303,296 L 305,296 L 314,291 L 316,291 L 318,289 L 319,289 L 320,288 L 325,286 L 327,284 L 330,283 L 331,282 L 331,281 L 330,281 L 328,283 L 327,283 L 326,284 L 325,284 L 324,285 L 323,285 L 312,291 L 310,291 L 309,292 L 307,292 L 306,293 L 304,293 L 303,294 L 301,294 L 300,295 L 298,295 L 297,296 L 294,296 L 293,297 L 290,297 L 289,298 L 285,298 L 284,299 L 280,299 L 279,300 L 271,300 L 270,301 L 242,301 L 241,300 L 233,300 L 232,299 L 227,299 L 226,298 L 221,298 L 220,297 L 216,297 L 215,296 L 211,296 L 210,295 L 206,295 L 205,294 L 202,294 L 201,293 L 199,293 L 198,292 L 195,292 L 194,291 L 191,291 L 190,290 L 188,290 L 187,289 L 184,289 L 183,288 L 180,288 L 179,287 L 177,287 L 176,286 L 174,286 L 173,285 L 170,285 L 169,284 L 166,284 L 165,283 L 163,283 L 162,282 L 159,282 L 158,281 L 155,281 L 154,280 L 151,280 L 150,279 L 148,279 L 147,278 L 144,278 L 143,277 L 139,277 L 138,276 L 133,276 L 132,275 L 128,275 L 127,274 L 122,274 L 121,273 L 114,273 L 113,272 L 78,272 L 77,273 L 70,273 L 69,274 L 64,274 L 63,275 L 59,275 L 58,276 L 55,276 L 54,277 L 51,277 L 50,278 L 48,278 L 47,279 L 44,279 L 43,280 L 41,280 L 40,281 L 35,282 L 32,284 L 30,284 L 27,286 L 25,286 L 18,290 L 16,290 L 15,291 L 14,291 Z" fill="#A8834B" fill-rule="evenodd" stroke="none"/>
</svg>